<?xml version="1.0" encoding="UTF-8"?>
<svg width="356px" height="68px" viewBox="0 0 356 68" version="1.1" xmlns="http://www.w3.org/2000/svg" xmlns:xlink="http://www.w3.org/1999/xlink">
    <!-- Generator: Sketch 52.4 (67378) - http://www.bohemiancoding.com/sketch -->
    <title>free-consultation-worth-500</title>
    <desc>Created with Sketch.</desc>
    <g id="Page-1" stroke="none" stroke-width="1" fill="none" fill-rule="evenodd">
        <g id="free-consultation-worth-500" transform="translate(0.000000, -1.000000)">
            <g transform="translate(89.000000, 0.500000)">
                <path d="M13.0189277,62.8429888 C13.116907,62.8429888 13.2148847,62.8607635 13.312864,62.8963134 C13.4108432,62.9318632 13.5047386,62.9930871 13.5945529,63.0799868 L15.2356972,64.7508229 C14.5171827,65.6593199 13.6170118,66.3446323 12.5351576,66.8067808 C11.4533034,67.2689292 10.1734686,67.5 8.69561494,67.5 C7.34023532,67.5 6.12571908,67.2768291 5.0520298,66.8304806 C3.97834053,66.3841321 3.06796365,65.7679434 2.32087187,64.981896 C1.57378009,64.1958486 1.00020184,63.2636657 0.600119904,62.1853193 C0.200037968,61.1069729 0,59.9358194 0,58.6718236 C0,57.3841279 0.22861482,56.2011245 0.685851319,55.1227781 C1.14308782,54.0444317 1.78198459,53.1142238 2.60256081,52.3321264 C3.42313703,51.550029 4.40495603,50.9417402 5.54804728,50.5072416 C6.69113852,50.0727431 7.95260244,49.855497 9.33247688,49.855497 C10.0020017,49.855497 10.6327337,49.912771 11.2246917,50.0273206 C11.8166496,50.1418702 12.3698159,50.2998673 12.8842069,50.5013167 C13.398598,50.702766 13.8721573,50.9437116 14.3048989,51.2241606 C14.7376406,51.5046097 15.1213869,51.814679 15.4561494,52.1543779 L14.059952,53.9674128 C13.9701377,54.0780124 13.8639951,54.1787356 13.7415211,54.2695853 C13.619047,54.360435 13.4475859,54.4058591 13.2271326,54.4058591 C13.0801637,54.4058591 12.9413618,54.3742597 12.8107229,54.3110599 C12.6800839,54.2478601 12.541282,54.1708365 12.3943131,54.0799868 C12.2473442,53.9891371 12.0860891,53.8903889 11.910543,53.7837393 C11.7349968,53.6770897 11.5267941,53.5783415 11.2859284,53.4874918 C11.0450627,53.3966421 10.7633766,53.3196185 10.4408616,53.2564187 C10.1183466,53.1932189 9.74072387,53.1616195 9.30798219,53.1616195 C8.55680794,53.1616195 7.87096348,53.2899921 7.25042823,53.5467413 C6.62989298,53.8034904 6.0971388,54.1708337 5.65214971,54.6487821 C5.20716062,55.1267305 4.86015598,55.7053949 4.61112539,56.3847926 C4.36209479,57.0641904 4.23758136,57.8265264 4.23758136,58.6718236 C4.23758136,59.5566206 4.36209479,60.3426562 4.61112539,61.0299539 C4.86015598,61.7172516 5.1989958,62.295916 5.62765502,62.7659645 C6.05631424,63.2360129 6.55640916,63.5934813 7.12795478,63.8383805 C7.6995004,64.0832797 8.31186153,64.2057275 8.96505653,64.2057275 C9.34064365,64.2057275 9.68356588,64.1879528 9.9938335,64.1524029 C10.3041011,64.116853 10.5919109,64.0556291 10.8572713,63.9687294 C11.1226318,63.8818297 11.3757411,63.7692568 11.6166067,63.6310072 C11.8574724,63.4927577 12.1003756,63.3209359 12.3453237,63.1155365 C12.443303,63.0365368 12.5494456,62.971363 12.6637547,62.9200132 C12.7780638,62.8686633 12.8964537,62.8429888 13.0189277,62.8429888 Z M22.7800617,54.8324556 C23.7435243,54.8324556 24.6212419,54.9786029 25.4132408,55.2709019 C26.2052398,55.5632009 26.8849606,55.9818933 27.4524238,56.5269914 C28.0198869,57.0720896 28.4607869,57.7337025 28.775137,58.5118499 C29.0894871,59.2899973 29.2466598,60.1649063 29.2466598,61.136603 C29.2466598,62.1161998 29.0894871,62.9990086 28.775137,63.785056 C28.4607869,64.5711033 28.0198869,65.2386411 27.4524238,65.7876893 C26.8849606,66.3367374 26.2052398,66.7593797 25.4132408,67.0556287 C24.6212419,67.3518777 23.7435243,67.5 22.7800617,67.5 C21.8084341,67.5 20.9245929,67.3518777 20.1285115,67.0556287 C19.3324301,66.7593797 18.6465856,66.3367374 18.0709575,65.7876893 C17.4953294,65.2386411 17.050347,64.5711033 16.7359969,63.785056 C16.4216468,62.9990086 16.2644741,62.1161998 16.2644741,61.136603 C16.2644741,60.1649063 16.4216468,59.2899973 16.7359969,58.5118499 C17.050347,57.7337025 17.4953294,57.0720896 18.0709575,56.5269914 C18.6465856,55.9818933 19.3324301,55.5632009 20.1285115,55.2709019 C20.9245929,54.9786029 21.8084341,54.8324556 22.7800617,54.8324556 Z M22.7800617,64.7745227 C23.65371,64.7745227 24.2966892,64.4763032 24.7090185,63.8798552 C25.1213478,63.2834072 25.3275094,62.3768988 25.3275094,61.1603028 C25.3275094,59.9437069 25.1213478,59.0391735 24.7090185,58.4466754 C24.2966892,57.8541774 23.65371,57.5579329 22.7800617,57.5579329 C21.8819185,57.5579329 21.2246509,57.8541774 20.8082391,58.4466754 C20.3918273,59.0391735 20.1836245,59.9437069 20.1836245,61.1603028 C20.1836245,62.3768988 20.3918273,63.2834072 20.8082391,63.8798552 C21.2246509,64.4763032 21.8819185,64.7745227 22.7800617,64.7745227 Z M31.3287085,67.3104016 L31.3287085,55.022054 L33.6801987,55.022054 C33.9169819,55.022054 34.1149786,55.073403 34.2741949,55.1761027 C34.4334112,55.2788024 34.5456774,55.4328495 34.6109969,55.6382488 L34.8314491,56.3492429 C35.0763973,56.1280437 35.3295065,55.9226474 35.5907845,55.7330481 C35.8520625,55.5434487 36.1317074,55.3834766 36.4297276,55.2531271 C36.7277479,55.1227775 37.0502581,55.0200794 37.3972679,54.9450296 C37.7442777,54.8699799 38.1219004,54.8324556 38.5301473,54.8324556 C39.224167,54.8324556 39.8385693,54.9489784 40.3733727,55.1820276 C40.9081761,55.4150769 41.3592822,55.7389709 41.7267044,56.1537196 C42.0941265,56.5684682 42.3717302,57.0622091 42.5595238,57.6349572 C42.7473174,58.2077053 42.8412127,58.8298189 42.8412127,59.5013167 L42.8412127,67.3104016 L39.0445358,67.3104016 L39.0445358,59.5013167 C39.0445358,58.9009187 38.9016515,58.4328522 38.6158787,58.0971034 C38.3301059,57.7613545 37.9096179,57.5934826 37.3544022,57.5934826 C36.9379904,57.5934826 36.5460793,57.680381 36.1786571,57.8541804 C35.8112349,58.0279798 35.4601478,58.2610255 35.1253854,58.5533246 L35.1253854,67.3104016 L31.3287085,67.3104016 Z M53.3004454,57.7119816 C53.2024661,57.8620811 53.0983647,57.9687291 52.9881381,58.0319289 C52.8779114,58.0951287 52.7370683,58.1267281 52.5656047,58.1267281 C52.385976,58.1267281 52.2063501,58.0892038 52.0267215,58.014154 C51.8470929,57.9391043 51.6531785,57.8581308 51.4449726,57.7712311 C51.2367667,57.6843314 51.0020283,57.6033578 50.7407503,57.5283081 C50.4794723,57.4532583 50.1814565,57.415734 49.8466941,57.415734 C49.3649628,57.415734 48.9955049,57.5046074 48.7383094,57.6823568 C48.4811138,57.8601062 48.352518,58.1069767 48.352518,58.4229756 C48.352518,58.6520749 48.4362073,58.8416714 48.6035886,58.9917709 C48.7709698,59.1418704 48.993461,59.274193 49.2710689,59.3887426 C49.5486767,59.5032922 49.8630221,59.6119152 50.2141144,59.7146149 C50.5652067,59.8173145 50.9244586,59.9318624 51.2918808,60.058262 C51.659303,60.1846616 52.0185548,60.3327839 52.3696471,60.5026333 C52.7207395,60.6724827 53.0350848,60.8818289 53.3126927,61.1306781 C53.5903006,61.3795272 53.8127918,61.6816967 53.980173,62.0371955 C54.1475542,62.3926943 54.2312436,62.8192865 54.2312436,63.3169849 C54.2312436,63.9252828 54.1169362,64.4861725 53.8883179,64.9996708 C53.6596997,65.5131691 53.3188186,65.955561 52.8656646,66.3268598 C52.4125106,66.6981585 51.8532208,66.9865033 51.1877783,67.1919026 C50.5223359,67.3973019 49.7568845,67.5 48.8914012,67.5 C48.4586595,67.5 48.0259243,67.4605007 47.5931826,67.381501 C47.1604409,67.3025013 46.7419941,67.1958532 46.3378297,67.0615537 C45.9336653,66.9272541 45.560125,66.767282 45.2171977,66.5816327 C44.8742703,66.3959833 44.580337,66.1965119 44.3353888,65.9832126 L45.2171977,64.6323239 C45.3233419,64.4743244 45.4498965,64.3499017 45.5968654,64.259052 C45.7438342,64.1682023 45.9357074,64.1227781 46.1724906,64.1227781 C46.3929439,64.1227781 46.5909407,64.1701773 46.7664868,64.264977 C46.942033,64.3597766 47.1318649,64.4624748 47.3359884,64.5730744 C47.5401118,64.683674 47.7789326,64.7863721 48.052458,64.8811718 C48.3259834,64.9759715 48.6709469,65.0233706 49.0873587,65.0233706 C49.3812964,65.0233706 49.6303233,64.9937462 49.8344467,64.9344964 C50.0385702,64.8752466 50.2018665,64.7942731 50.3243405,64.6915734 C50.4468146,64.5888737 50.5366276,64.4743258 50.5937821,64.3479263 C50.6509367,64.2215267 50.6795135,64.0911791 50.6795135,63.9568795 C50.6795135,63.7119803 50.593783,63.510534 50.4223193,63.3525346 C50.2508556,63.1945351 50.0263232,63.0582626 49.7487153,62.943713 C49.4711074,62.8291634 49.1547209,62.7225153 48.7995461,62.6237656 C48.4443713,62.525016 48.0830782,62.412443 47.715656,62.2860434 C47.3482339,62.1596439 46.9869408,62.0075717 46.631766,61.8298223 C46.2765912,61.6520728 45.9602047,61.426927 45.6825968,61.1543779 C45.4049889,60.8818288 45.1804565,60.5480599 45.0089928,60.1530612 C44.8375291,59.7580625 44.7517986,59.2801213 44.7517986,58.7192232 C44.7517986,58.1978249 44.8559,57.702109 45.0641059,57.2320606 C45.2723118,56.7620121 45.5846159,56.3492447 46.0010277,55.9937459 C46.4174396,55.6382471 46.9399877,55.3558272 47.5686879,55.1464779 C48.1973881,54.9371286 48.9322214,54.8324556 49.77321,54.8324556 C50.2304465,54.8324556 50.6733877,54.8719548 51.1020469,54.9509546 C51.5307062,55.0299543 51.9328233,55.1405523 52.3084104,55.2827518 C52.6839975,55.4249513 53.0269198,55.5928233 53.3371874,55.7863726 C53.647455,55.979922 53.9209763,56.1912431 54.1577595,56.4203423 L53.3004454,57.7119816 Z M59.8650223,55.022054 L59.8650223,62.819289 C59.8650223,63.427587 60.0079065,63.8976284 60.2936793,64.2294273 C60.5794522,64.5612261 60.9999401,64.7271231 61.5551559,64.7271231 C61.9715677,64.7271231 62.3614376,64.6441746 62.7247773,64.4782752 C63.088117,64.3123757 63.4412453,64.07933 63.7841727,63.779131 L63.7841727,55.022054 L67.5808496,55.022054 L67.5808496,67.3104016 L65.2293594,67.3104016 C64.755793,67.3104016 64.44553,67.1050053 64.2985612,66.6942067 L64.0658616,65.9832126 C63.8209135,66.2123119 63.5678042,66.4196831 63.3065262,66.6053325 C63.0452482,66.7909818 62.7656033,66.9489789 62.4675831,67.0793285 C62.1695629,67.2096781 61.8490939,67.3123762 61.5061665,67.3874259 C61.1632391,67.4624757 60.7876576,67.5 60.3794108,67.5 C59.6853911,67.5 59.0709887,67.3834771 58.5361853,67.1504279 C58.0013819,66.9173787 57.5502759,66.5915097 57.1828537,66.1728111 C56.8154315,65.7541125 56.5378278,65.2603715 56.3500343,64.6915734 C56.1622407,64.1227753 56.0683453,63.4986867 56.0683453,62.819289 L56.0683453,55.022054 L59.8650223,55.022054 Z M74.4393628,49.5710994 L74.4393628,67.3104016 L70.6426859,67.3104016 L70.6426859,49.5710994 L74.4393628,49.5710994 Z M81.9592326,67.5 C81.3550272,67.5 80.8222731,67.4150766 80.3609541,67.2452271 C79.8996351,67.0753777 79.5118064,66.8344321 79.1974563,66.5223831 C78.8831062,66.2103342 78.6442854,65.8331161 78.4809866,65.3907176 C78.3176879,64.9483191 78.2360397,64.4545781 78.2360397,63.9094799 L78.2360397,57.5579329 L77.1582734,57.5579329 C76.9623149,57.5579329 76.7949362,57.496709 76.6561322,57.3742594 C76.5173283,57.2518098 76.4479274,57.0720881 76.4479274,56.8350889 L76.4479274,55.4012508 L78.4687393,55.022054 L79.2158273,52.024029 C79.3138066,51.6448302 79.5914103,51.4552337 80.0486468,51.4552337 L82.0327167,51.4552337 L82.0327167,55.0457538 L85.1190476,55.0457538 L85.1190476,57.5579329 L82.0327167,57.5579329 L82.0327167,63.660632 C82.0327167,63.945031 82.1041588,64.1800517 82.2470452,64.3657011 C82.3899316,64.5513505 82.5960932,64.6441738 82.8655361,64.6441738 C83.0043401,64.6441738 83.1206887,64.6303491 83.2145855,64.6026991 C83.3084823,64.5750492 83.3901304,64.5434498 83.4595324,64.5078999 C83.5289343,64.4723501 83.5942529,64.4407506 83.6554899,64.4131007 C83.7167269,64.3854508 83.7881691,64.3716261 83.8698184,64.3716261 C83.9841276,64.3716261 84.0759817,64.3973006 84.1453837,64.4486504 C84.2147857,64.5000003 84.2862278,64.5809738 84.3597122,64.6915734 L85.5109627,66.4335089 C85.0210664,66.7890077 84.4699414,67.0556278 83.8575711,67.2333772 C83.2452008,67.4111266 82.6124276,67.5 81.9592326,67.5 Z M96.068174,67.3104016 C95.7089168,67.3104016 95.4374367,67.2630024 95.2537256,67.1682028 C95.0700145,67.0734031 94.9169242,66.8759067 94.7944502,66.5757077 L94.5250086,65.9002633 C94.206576,66.1609625 93.9003954,66.3900583 93.6064577,66.5875576 C93.3125199,66.7850569 93.0083806,66.9529289 92.6940305,67.0911784 C92.3796804,67.2294279 92.044923,67.3321261 91.6897482,67.3992758 C91.3345734,67.4664256 90.9406211,67.5 90.5078794,67.5 C89.9281688,67.5 89.4015383,67.4269263 88.9279719,67.2807768 C88.4544055,67.1346273 88.0522884,66.9193563 87.7216084,66.6349572 C87.3909285,66.3505582 87.135778,65.9970396 86.9561494,65.574391 C86.7765207,65.1517425 86.6867078,64.6639264 86.6867078,64.1109282 C86.6867078,63.6764297 86.8010152,63.2300879 87.0296334,62.7718894 C87.2582517,62.3136909 87.6542452,61.8969736 88.2176259,61.5217248 C88.7810066,61.1464761 89.5403344,60.8324568 90.4956321,60.5796577 C91.4509298,60.3268585 92.65524,60.1846611 94.1085988,60.1530612 L94.1085988,59.6316656 C94.1085988,58.912768 93.9555086,58.3933525 93.6493234,58.0734036 C93.3431382,57.7534546 92.9083618,57.5934826 92.3449812,57.5934826 C91.8959096,57.5934826 91.5284929,57.6408817 91.2427201,57.7356814 C90.9569473,57.8304811 90.7017968,57.9371291 90.477261,58.0556287 C90.2527253,58.1741283 90.0343165,58.2807764 89.8220281,58.375576 C89.6097397,58.4703757 89.3566305,58.5177749 89.0626927,58.5177749 C88.8014147,58.5177749 88.5789235,58.456551 88.3952124,58.3341014 C88.2115013,58.2116518 88.0665758,58.0595796 87.9604317,57.8778802 L87.2745803,56.7284398 C88.0420845,56.0727419 88.8932664,55.5849259 89.8281518,55.264977 C90.7630371,54.945028 91.7652681,54.785056 92.834875,54.785056 C93.6023791,54.785056 94.2943472,54.9055287 94.9107999,55.1464779 C95.5272527,55.3874271 96.0498009,55.723171 96.4784601,56.1537196 C96.9071193,56.5842681 97.2357531,57.0957837 97.4643714,57.6882818 C97.6929896,58.2807798 97.807297,58.9285679 97.807297,59.6316656 L97.807297,67.3104016 L96.068174,67.3104016 Z M91.7081192,65.0707702 C92.1980155,65.0707702 92.6266683,64.9878218 92.9940904,64.8219223 C93.3615126,64.6560229 93.7330117,64.3874278 94.1085988,64.016129 L94.1085988,62.3097433 C93.3492596,62.3413431 92.7246513,62.404542 92.2347551,62.4993417 C91.7448588,62.5941414 91.3570301,62.7126392 91.0712573,62.8548387 C90.7854845,62.9970382 90.5874877,63.1589853 90.477261,63.3406847 C90.3670344,63.5223841 90.3119219,63.7198804 90.3119219,63.9331797 C90.3119219,64.3518783 90.4303117,64.6461479 90.6670949,64.8159974 C90.9038781,64.9858468 91.2508827,65.0707702 91.7081192,65.0707702 Z M104.959746,67.5 C104.355541,67.5 103.822787,67.4150766 103.361468,67.2452271 C102.900149,67.0753777 102.51232,66.8344321 102.19797,66.5223831 C101.88362,66.2103342 101.644799,65.8331161 101.481501,65.3907176 C101.318202,64.9483191 101.236554,64.4545781 101.236554,63.9094799 L101.236554,57.5579329 L100.158787,57.5579329 C99.9628288,57.5579329 99.79545,57.496709 99.6566461,57.3742594 C99.5178422,57.2518098 99.4484412,57.0720881 99.4484412,56.8350889 L99.4484412,55.4012508 L101.469253,55.022054 L102.216341,52.024029 C102.31432,51.6448302 102.591924,51.4552337 103.049161,51.4552337 L105.033231,51.4552337 L105.033231,55.0457538 L108.119561,55.0457538 L108.119561,57.5579329 L105.033231,57.5579329 L105.033231,63.660632 C105.033231,63.945031 105.104673,64.1800517 105.247559,64.3657011 C105.390446,64.5513505 105.596607,64.6441738 105.86605,64.6441738 C106.004854,64.6441738 106.121203,64.6303491 106.215099,64.6026991 C106.308996,64.5750492 106.390644,64.5434498 106.460046,64.5078999 C106.529448,64.4723501 106.594767,64.4407506 106.656004,64.4131007 C106.717241,64.3854508 106.788683,64.3716261 106.870332,64.3716261 C106.984641,64.3716261 107.076496,64.3973006 107.145898,64.4486504 C107.2153,64.5000003 107.286742,64.5809738 107.360226,64.6915734 L108.511477,66.4335089 C108.02158,66.7890077 107.470455,67.0556278 106.858085,67.2333772 C106.245715,67.4111266 105.612941,67.5 104.959746,67.5 Z M114.218739,55.022054 L114.218739,67.3104016 L110.422062,67.3104016 L110.422062,55.022054 L114.218739,55.022054 Z M114.659644,51.656682 C114.659644,51.9489811 114.598408,52.223501 114.475934,52.4802502 C114.353459,52.7369993 114.186081,52.9621452 113.973792,53.1556945 C113.761504,53.3492439 113.514518,53.5032911 113.232828,53.6178407 C112.951138,53.7323903 112.651081,53.7896643 112.332648,53.7896643 C112.022381,53.7896643 111.73253,53.7323903 111.463087,53.6178407 C111.193644,53.5032911 110.954823,53.3492439 110.746617,53.1556945 C110.538411,52.9621452 110.375115,52.7369993 110.256723,52.4802502 C110.138332,52.223501 110.079137,51.9489811 110.079137,51.656682 C110.079137,51.356483 110.138332,51.0760382 110.256723,50.815339 C110.375115,50.5546399 110.538411,50.3255441 110.746617,50.1280448 C110.954823,49.9305454 111.193644,49.7764982 111.463087,49.6658986 C111.73253,49.555299 112.022381,49.5 112.332648,49.5 C112.651081,49.5 112.951138,49.555299 113.232828,49.6658986 C113.514518,49.7764982 113.761504,49.9305454 113.973792,50.1280448 C114.186081,50.3255441 114.353459,50.5546399 114.475934,50.815339 C114.598408,51.0760382 114.659644,51.356483 114.659644,51.656682 Z M122.938849,54.8324556 C123.902312,54.8324556 124.780029,54.9786029 125.572028,55.2709019 C126.364027,55.5632009 127.043748,55.9818933 127.611211,56.5269914 C128.178674,57.0720896 128.619574,57.7337025 128.933924,58.5118499 C129.248274,59.2899973 129.405447,60.1649063 129.405447,61.136603 C129.405447,62.1161998 129.248274,62.9990086 128.933924,63.785056 C128.619574,64.5711033 128.178674,65.2386411 127.611211,65.7876893 C127.043748,66.3367374 126.364027,66.7593797 125.572028,67.0556287 C124.780029,67.3518777 123.902312,67.5 122.938849,67.5 C121.967221,67.5 121.08338,67.3518777 120.287299,67.0556287 C119.491217,66.7593797 118.805373,66.3367374 118.229745,65.7876893 C117.654117,65.2386411 117.209134,64.5711033 116.894784,63.785056 C116.580434,62.9990086 116.423261,62.1161998 116.423261,61.136603 C116.423261,60.1649063 116.580434,59.2899973 116.894784,58.5118499 C117.209134,57.7337025 117.654117,57.0720896 118.229745,56.5269914 C118.805373,55.9818933 119.491217,55.5632009 120.287299,55.2709019 C121.08338,54.9786029 121.967221,54.8324556 122.938849,54.8324556 Z M122.938849,64.7745227 C123.812497,64.7745227 124.455476,64.4763032 124.867806,63.8798552 C125.280135,63.2834072 125.486297,62.3768988 125.486297,61.1603028 C125.486297,59.9437069 125.280135,59.0391735 124.867806,58.4466754 C124.455476,57.8541774 123.812497,57.5579329 122.938849,57.5579329 C122.040706,57.5579329 121.383438,57.8541774 120.967026,58.4466754 C120.550615,59.0391735 120.342412,59.9437069 120.342412,61.1603028 C120.342412,62.3768988 120.550615,63.2834072 120.967026,63.8798552 C121.383438,64.4763032 122.040706,64.7745227 122.938849,64.7745227 Z M131.487496,67.3104016 L131.487496,55.022054 L133.838986,55.022054 C134.075769,55.022054 134.273766,55.073403 134.432982,55.1761027 C134.592198,55.2788024 134.704465,55.4328495 134.769784,55.6382488 L134.990236,56.3492429 C135.235185,56.1280437 135.488294,55.9226474 135.749572,55.7330481 C136.01085,55.5434487 136.290495,55.3834766 136.588515,55.2531271 C136.886535,55.1227775 137.209045,55.0200794 137.556055,54.9450296 C137.903065,54.8699799 138.280688,54.8324556 138.688935,54.8324556 C139.382954,54.8324556 139.997357,54.9489784 140.53216,55.1820276 C141.066963,55.4150769 141.518069,55.7389709 141.885492,56.1537196 C142.252914,56.5684682 142.530518,57.0622091 142.718311,57.6349572 C142.906105,58.2077053 143,58.8298189 143,59.5013167 L143,67.3104016 L139.203323,67.3104016 L139.203323,59.5013167 C139.203323,58.9009187 139.060439,58.4328522 138.774666,58.0971034 C138.488893,57.7613545 138.068405,57.5934826 137.513189,57.5934826 C137.096778,57.5934826 136.704867,57.680381 136.337444,57.8541804 C135.970022,58.0279798 135.618935,58.2610255 135.284173,58.5533246 L135.284173,67.3104016 L131.487496,67.3104016 Z" id="Consultation" fill="#1355A3"></path>
                <path d="M28.1334002,2.5 L28.1334002,9.45950583 L12.1101877,9.45950583 L12.1101877,19.3366507 L25.4539332,19.3366507 L25.4539332,26.3229238 L12.1101877,26.3229238 L12.1101877,41.5 L3,41.5 L3,2.5 L28.1334002,2.5 Z M46.9400105,27.0724091 L46.9400105,41.5 L37.8834121,41.5 L37.8834121,2.5 L50.5840856,2.5 C53.4064716,2.5 55.813502,2.78997651 57.8052491,3.36993823 C59.7969962,3.94989995 61.4225232,4.757373 62.681879,5.79238161 C63.9412347,6.82739021 64.8567101,8.04975273 65.4283326,9.45950583 C65.9999551,10.8692589 66.285762,12.4039039 66.285762,14.0634866 C66.285762,15.3304799 66.1160642,16.5260754 65.7766633,17.6503089 C65.4372625,18.7745423 64.9326346,19.8139966 64.2627645,20.7687028 C63.5928944,21.723409 62.7711994,22.5754939 61.7976549,23.3249828 C60.8241103,24.0744718 59.7032112,24.6901143 58.4349238,25.1719286 C59.0422727,25.4752932 59.6094209,25.8500321 60.1363853,26.2961565 C60.6633498,26.7422809 61.1233204,27.2865445 61.5163108,27.9289636 L69.8226585,41.5 L61.6234895,41.5 C60.1051173,41.5 59.0154783,40.9289693 58.3545398,39.7868909 L51.8702297,28.4643102 C51.5844185,27.9646509 51.2494885,27.6077567 50.8654296,27.393617 C50.4813708,27.1794773 49.941017,27.0724091 49.2443521,27.0724091 L46.9400105,27.0724091 Z M46.9400105,20.8356211 L50.5840856,20.8356211 C51.8166466,20.8356211 52.866094,20.6794799 53.7324593,20.3671929 C54.5988246,20.0549058 55.3088762,19.6221716 55.8626355,19.0689774 C56.4163948,18.5157831 56.8183108,17.8689124 57.0683957,17.1283459 C57.3184805,16.3877794 57.443521,15.5892287 57.443521,14.7326699 C57.443521,13.0195522 56.8853043,11.6811991 55.7688542,10.7175704 C54.652404,9.75394165 52.9241651,9.27213452 50.5840856,9.27213452 L46.9400105,9.27213452 L46.9400105,20.8356211 Z M103.687873,2.5 L103.687873,9.45950583 L87.6646606,9.45950583 L87.6646606,18.5603981 L99.9366194,18.5603981 L99.9366194,25.2522306 L87.6646606,25.2522306 L87.6646606,34.5404942 L103.687873,34.5404942 L103.687873,41.5 L78.5544729,41.5 L78.5544729,2.5 L103.687873,2.5 Z M139,2.5 L139,9.45950583 L122.976788,9.45950583 L122.976788,18.5603981 L135.248746,18.5603981 L135.248746,25.2522306 L122.976788,25.2522306 L122.976788,34.5404942 L139,34.5404942 L139,41.5 L113.8666,41.5 L113.8666,2.5 L139,2.5 Z" id="FREE" fill="#1355A3"></path>
                <path d="M158,51.3306857 C158,50.6934342 158.205141,50.1398304 158.615429,49.6698574 C159.025717,49.1998845 159.641139,48.9649016 160.461715,48.9649016 L162.48901,48.9649016 L162.48901,43.8031908 C162.48901,42.2897186 162.722307,40.8519416 163.188909,39.4898167 C163.655511,38.1276918 164.36747,36.9288805 165.324809,35.8933469 C166.282147,34.8578133 167.480813,34.0333817 168.920843,33.4200272 C170.360873,32.8066727 172.062336,32.5 174.025282,32.5 C175.328549,32.5 176.507104,32.6632932 177.56098,32.9898846 C178.614857,33.3164759 179.556092,33.7705108 180.384712,34.3520027 C181.213333,34.9334946 181.941382,35.6185297 182.568881,36.4071283 C183.19638,37.195727 183.743422,38.0440552 184.210024,38.9521385 L181.217351,40.8160896 C180.622031,41.1347153 180.050855,41.2940258 179.503804,41.2940258 C178.763677,41.2940258 178.095964,40.9913359 177.500644,40.385947 C176.889235,39.7646269 176.334148,39.3026265 175.835366,38.9999321 C175.336585,38.6972377 174.73323,38.5458927 174.025282,38.5458927 C172.722014,38.5458927 171.752623,38.9959448 171.117079,39.8960625 C170.481535,40.7961801 170.163768,42.0905777 170.163768,43.779294 L170.163768,48.9649016 L179.334863,48.9649016 L179.334863,51.7847251 C179.334863,52.0236943 179.282572,52.2507118 179.177989,52.4657841 C179.073406,52.6808565 178.928601,52.8760118 178.743569,53.0512559 C178.558537,53.2265001 178.341329,53.3658967 178.091938,53.4694501 C177.842548,53.5730035 177.565004,53.6247794 177.2593,53.6247794 L170.163768,53.6247794 L170.163768,57.3526816 C170.163768,58.3085588 169.982761,59.172818 169.620743,59.9454854 C169.258724,60.7181528 168.772017,61.4390326 168.160608,62.1081466 C168.884645,61.9488338 169.608672,61.8253682 170.332709,61.7377461 C171.056747,61.650124 171.788818,61.6063136 172.528945,61.6063136 L184.644444,61.6063136 L184.644444,64.6412084 C184.644444,64.9916967 184.568019,65.3501453 184.415167,65.7165648 C184.262315,66.0829844 184.049129,66.4135536 183.775604,66.7082824 C183.502079,67.0030112 183.168222,67.2419769 182.774024,67.4251867 C182.379826,67.6083965 181.941387,67.7 181.458696,67.7 L158.43442,67.7 L158.43442,63.2551935 C158.965381,63.1596058 159.476222,63.0082608 159.966959,62.8011541 C160.457695,62.5940474 160.888089,62.3311851 161.258152,62.0125594 C161.628216,61.6939337 161.925871,61.3115886 162.151127,60.8655126 C162.376383,60.4194366 162.48901,59.9016775 162.48901,59.31222 L162.48901,53.6247794 L158,53.6247794 L158,51.3306857 Z M208.373875,36.3587916 C208.373875,36.8685927 208.293617,37.3305931 208.133098,37.7448065 C207.972579,38.1590199 207.719765,38.5214513 207.374648,38.8321113 C207.029532,39.1427714 206.576072,39.3817371 206.014255,39.5490156 C205.452438,39.7162941 204.778268,39.7999321 203.991724,39.7999321 L195.612665,39.7999321 L194.625477,45.5590631 C195.283605,45.4475441 195.917647,45.3639061 196.527619,45.3081466 C197.137592,45.2523871 197.731504,45.2245078 198.309373,45.2245078 C200.155344,45.2245078 201.784589,45.5033011 203.197158,46.0608961 C204.609727,46.6184911 205.797551,47.3791986 206.760666,48.3430414 C207.723781,49.3068842 208.450119,50.4379885 208.939703,51.7363883 C209.429286,53.0347881 209.674074,54.424772 209.674074,55.9063815 C209.674074,57.770342 209.341002,59.4709812 208.674847,61.0083503 C208.008693,62.5457194 207.081708,63.871979 205.893866,64.987169 C204.706025,66.102359 203.289464,66.9666183 201.644143,67.5799728 C199.998821,68.1933273 198.19702,68.5 196.238686,68.5 C195.099,68.5 194.011499,68.3805171 192.976151,68.1415479 C191.940802,67.9025786 190.969675,67.5799749 190.062742,67.1737271 C189.155809,66.7674793 188.317109,66.2975134 187.546617,65.7638153 C186.776125,65.2301173 186.077877,64.6605823 185.451852,64.0551935 L187.763316,60.9964019 C188.004095,60.6777762 188.284999,60.4348277 188.606038,60.2675492 C188.927076,60.1002707 189.272187,60.0166327 189.641381,60.0166327 C190.122939,60.0166327 190.576399,60.1480639 191.001775,60.4109301 C191.42715,60.6737963 191.892649,60.9605551 192.398284,61.2712152 C192.90392,61.5818753 193.493819,61.8646514 194.167999,62.1195519 C194.84218,62.3744525 195.676867,62.5019009 196.672086,62.5019009 C197.667305,62.5019009 198.518044,62.3386077 199.224328,62.0120163 C199.930612,61.6854249 200.50446,61.2393556 200.945888,60.673795 C201.387315,60.1082343 201.708349,59.4470959 201.908998,58.6903598 C202.109647,57.9336237 202.20997,57.1251231 202.20997,56.2648337 C202.20997,54.5761174 201.72842,53.2896853 200.765304,52.405499 C199.802189,51.5213126 198.437797,51.0792261 196.672086,51.0792261 C195.098998,51.0792261 193.558037,51.3739504 192.049157,51.963408 L187.426228,50.7207739 L190.41187,33.3 L208.373875,33.3 L208.373875,36.3587916 Z M239.548148,50.08818 C239.548148,53.0983585 239.221201,55.7066153 238.567298,57.9130289 C237.913394,60.1194424 237.008309,61.9475862 235.852016,63.3975151 C234.695724,64.847444 233.324141,65.9269944 231.737229,66.6361988 C230.150317,67.3454031 228.431852,67.7 226.581783,67.7 C224.731715,67.7 223.021224,67.3454031 221.450261,66.6361988 C219.879297,65.9269944 218.519677,64.847444 217.371358,63.3975151 C216.22304,61.9475862 215.325929,60.1194424 214.68,57.9130289 C214.034071,55.7066153 213.711111,53.0983585 213.711111,50.08818 C213.711111,47.0780015 214.034071,44.4697446 214.68,42.2633311 C215.325929,40.0569176 216.22304,38.2287738 217.371358,36.7788449 C218.519677,35.328916 219.879297,34.2533055 221.450261,33.5519812 C223.021224,32.8506569 224.731715,32.5 226.581783,32.5 C228.431852,32.5 230.150317,32.8506569 231.737229,33.5519812 C233.324141,34.2533055 234.695724,35.328916 235.852016,36.7788449 C237.008309,38.2287738 237.913394,40.0569176 238.567298,42.2633311 C239.221201,44.4697446 239.548148,47.0780015 239.548148,50.08818 Z M231.474074,50.4882947 C231.474074,48.1316061 231.322993,46.200243 231.020825,44.6941473 C230.718657,43.1880517 230.317098,42.0058233 229.816136,41.1474268 C229.315174,40.2890304 228.746631,39.6998671 228.110488,39.3799193 C227.474346,39.0599715 226.830261,38.9 226.178215,38.9 C225.52617,38.9 224.886061,39.0599715 224.25787,39.3799193 C223.62968,39.6998671 223.073064,40.2890304 222.588005,41.1474268 C222.102947,42.0058233 221.713315,43.1880517 221.419099,44.6941473 C221.124883,46.200243 220.977778,48.1316061 220.977778,50.4882947 C220.977778,52.8605904 221.124883,54.7958553 221.419099,56.2941473 C221.713315,57.7924394 222.102947,58.9746677 222.588005,59.8408678 C223.073064,60.7070679 223.62968,61.3001329 224.25787,61.6200807 C224.886061,61.9400285 225.52617,62.1 226.178215,62.1 C226.830261,62.1 227.474346,61.9400285 228.110488,61.6200807 C228.746631,61.3001329 229.315174,60.7070679 229.816136,59.8408678 C230.317098,58.9746677 230.718657,57.7924394 231.020825,56.2941473 C231.322993,54.7958553 231.474074,52.8605904 231.474074,50.4882947 Z M267,50.08818 C267,53.0983585 266.673053,55.7066153 266.01915,57.9130289 C265.365246,60.1194424 264.460161,61.9475862 263.303868,63.3975151 C262.147575,64.847444 260.775993,65.9269944 259.189081,66.6361988 C257.602169,67.3454031 255.883704,67.7 254.033635,67.7 C252.183566,67.7 250.473076,67.3454031 248.902112,66.6361988 C247.331149,65.9269944 245.971528,64.847444 244.82321,63.3975151 C243.674891,61.9475862 242.777781,60.1194424 242.131852,57.9130289 C241.485923,55.7066153 241.162963,53.0983585 241.162963,50.08818 C241.162963,47.0780015 241.485923,44.4697446 242.131852,42.2633311 C242.777781,40.0569176 243.674891,38.2287738 244.82321,36.7788449 C245.971528,35.328916 247.331149,34.2533055 248.902112,33.5519812 C250.473076,32.8506569 252.183566,32.5 254.033635,32.5 C255.883704,32.5 257.602169,32.8506569 259.189081,33.5519812 C260.775993,34.2533055 262.147575,35.328916 263.303868,36.7788449 C264.460161,38.2287738 265.365246,40.0569176 266.01915,42.2633311 C266.673053,44.4697446 267,47.0780015 267,50.08818 Z M259.733333,50.4882947 C259.733333,48.1316061 259.582252,46.200243 259.280084,44.6941473 C258.977917,43.1880517 258.576358,42.0058233 258.075396,41.1474268 C257.574434,40.2890304 257.00589,39.6998671 256.369747,39.3799193 C255.733605,39.0599715 255.089521,38.9 254.437475,38.9 C253.785429,38.9 253.14532,39.0599715 252.51713,39.3799193 C251.888939,39.6998671 251.332323,40.2890304 250.847264,41.1474268 C250.362206,42.0058233 249.972574,43.1880517 249.678359,44.6941473 C249.384143,46.200243 249.237037,48.1316061 249.237037,50.4882947 C249.237037,52.8605904 249.384143,54.7958553 249.678359,56.2941473 C249.972574,57.7924394 250.362206,58.9746677 250.847264,59.8408678 C251.332323,60.7070679 251.888939,61.3001329 252.51713,61.6200807 C253.14532,61.9400285 253.785429,62.1 254.437475,62.1 C255.089521,62.1 255.733605,61.9400285 256.369747,61.6200807 C257.00589,61.3001329 257.574434,60.7070679 258.075396,59.8408678 C258.576358,58.9746677 258.977917,57.7924394 259.280084,56.2941473 C259.582252,54.7958553 259.733333,52.8605904 259.733333,50.4882947 Z" id="£500" fill="#219581"></path>
                <path d="M158,6.39456647 L161.31237,6.39456647 C161.60621,6.39456647 161.859978,6.46739812 162.07368,6.61306358 C162.287383,6.75872905 162.416493,6.94809132 162.461014,7.18115607 L163.850072,13.9545665 C163.956923,14.4692511 164.054869,14.9693617 164.143911,15.4549133 C164.232954,15.9404649 164.313091,16.4211537 164.384325,16.8969942 C164.508985,16.4211537 164.640321,15.9428926 164.778337,15.4621965 C164.916353,14.9815005 165.052141,14.4789622 165.185705,13.9545665 L166.922028,7.1665896 C166.975453,6.94323588 167.104563,6.75630133 167.309361,6.60578035 C167.51416,6.45525936 167.750119,6.38 168.017247,6.38 L169.86042,6.38 C170.154261,6.38 170.405803,6.45525936 170.615053,6.60578035 C170.824303,6.75630133 170.955639,6.94323588 171.009065,7.1665896 L172.665249,13.9545665 C172.789909,14.4692511 172.916793,14.9693617 173.045905,15.4549133 C173.175017,15.9404649 173.297448,16.4308646 173.413204,16.9261272 C173.484438,16.4405756 173.571253,15.9574591 173.673652,15.476763 C173.776051,14.996067 173.885127,14.4886732 174.000882,13.9545665 L175.470079,7.18115607 C175.5146,6.94809132 175.641484,6.75872905 175.850734,6.61306358 C176.059984,6.46739812 176.29817,6.39456647 176.565298,6.39456647 L179.717391,6.39456647 L175.416653,21.5 L172.050858,21.5 C171.872773,21.5 171.721403,21.4417347 171.596743,21.3252023 C171.472083,21.2086699 171.374138,21.0144522 171.302904,20.7425434 L169.326167,13.2116763 C169.237125,12.8717902 169.152535,12.5367647 169.072397,12.2065896 C168.992259,11.8764145 168.921026,11.5462444 168.858696,11.2160694 C168.796366,11.5559555 168.727359,11.8934087 168.651673,12.2284393 C168.575986,12.5634699 168.489171,12.9009232 168.391224,13.2408092 L166.387775,20.7425434 C166.254211,21.247517 165.960374,21.5 165.506257,21.5 L162.300738,21.5 L158,6.39456647 Z M187.788187,6.38 C188.86268,6.38 189.841546,6.55444166 190.724815,6.90333022 C191.608085,7.25221877 192.366137,7.75197055 192.998995,8.40260056 C193.631853,9.05323057 194.123563,9.84293268 194.474139,10.7717306 C194.824715,11.7005285 195,12.7448211 195,13.9046399 C195,15.073888 194.824715,16.1276099 194.474139,17.0658372 C194.123563,18.0040646 193.631853,18.8008386 192.998995,19.4561833 C192.366137,20.1115281 191.608085,20.6159945 190.724815,20.9695978 C189.841546,21.323201 188.86268,21.5 187.788187,21.5 C186.704589,21.5 185.718893,21.323201 184.831071,20.9695978 C183.943248,20.6159945 183.178367,20.1115281 182.536403,19.4561833 C181.894439,18.8008386 181.398176,18.0040646 181.0476,17.0658372 C180.697024,16.1276099 180.521739,15.073888 180.521739,13.9046399 C180.521739,12.7448211 180.697024,11.7005285 181.0476,10.7717306 C181.398176,9.84293268 181.894439,9.05323057 182.536403,8.40260056 C183.178367,7.75197055 183.943248,7.25221877 184.831071,6.90333022 C185.718893,6.55444166 186.704589,6.38 187.788187,6.38 Z M187.791511,18.14 C188.884409,18.14 189.688748,17.792877 190.204555,17.0986207 C190.720361,16.4043643 190.978261,15.3492025 190.978261,13.9331034 C190.978261,12.5170044 190.720361,11.4641414 190.204555,10.7744828 C189.688748,10.0848241 188.884409,9.74 187.791511,9.74 C186.667972,9.74 185.845758,10.0848241 185.324845,10.7744828 C184.803931,11.4641414 184.543478,12.5170044 184.543478,13.9331034 C184.543478,15.3492025 184.803931,16.4043643 185.324845,17.0986207 C185.845758,17.792877 186.667972,18.14 187.791511,18.14 Z M197.413043,21.5 L197.413043,6.66609272 L199.994439,6.66609272 C200.209556,6.66609272 200.389597,6.68516537 200.534568,6.72331126 C200.679538,6.76145714 200.801124,6.8210592 200.89933,6.90211921 C200.997536,6.98317921 201.072358,7.09046291 201.123799,7.22397351 C201.17524,7.35748411 201.219666,7.5196017 201.257078,7.71033113 L201.495576,9.09788079 C202.028693,8.2586713 202.627272,7.59589647 203.29133,7.10953642 C203.955388,6.62317638 204.680229,6.38 205.465875,6.38 C206.129933,6.38 206.663041,6.54211758 207.065217,6.86635762 L206.504044,10.1278146 C206.466633,10.3280805 206.39181,10.4687413 206.279575,10.5498013 C206.16734,10.6308613 206.017696,10.6713907 205.830637,10.6713907 C205.671637,10.6713907 205.484581,10.649934 205.269464,10.6070199 C205.054347,10.5641057 204.783116,10.542649 204.455763,10.542649 C203.314706,10.542649 202.416838,11.1625104 201.762133,12.4022517 L201.762133,21.5 L197.413043,21.5 Z M213.73913,21.5 C213.095649,21.5 212.528263,21.3977411 212.036957,21.1932201 C211.54565,20.9886991 211.13261,20.6985691 210.797826,20.3228213 C210.463042,19.9470735 210.208697,19.4928535 210.034783,18.9601477 C209.860869,18.4274419 209.773913,17.8329132 209.773913,17.1765436 L209.773913,9.52844904 L208.626087,9.52844904 C208.41739,9.52844904 208.239131,9.45472747 208.091304,9.30728213 C207.943478,9.15983678 207.869565,8.94342831 207.869565,8.65805022 L207.869565,6.93152142 L210.021739,6.47491876 L210.817391,2.86490399 C210.92174,2.40829905 211.217389,2.18 211.704348,2.18 L213.817391,2.18 L213.817391,6.50345643 L217.104348,6.50345643 L217.104348,9.52844904 L213.817391,9.52844904 L213.817391,16.8768981 C213.817391,17.2193518 213.893478,17.5023475 214.045652,17.7258936 C214.197827,17.9494398 214.41739,18.0612112 214.704348,18.0612112 C214.852175,18.0612112 214.976086,18.0445644 215.076087,18.0112703 C215.176087,17.9779762 215.263043,17.9399264 215.336957,17.8971196 C215.41087,17.8543129 215.480434,17.8162631 215.545652,17.782969 C215.61087,17.7496749 215.686956,17.7330281 215.773913,17.7330281 C215.895653,17.7330281 215.993478,17.7639436 216.067391,17.8257755 C216.141305,17.8876074 216.217391,17.9851101 216.295652,18.1182866 L217.521739,20.215805 C216.999997,20.6438722 216.413047,20.9649177 215.76087,21.1789513 C215.108692,21.3929848 214.434786,21.5 213.73913,21.5 Z M219.130435,21.5 L219.130435,0.5 L223.374653,0.5 L223.374653,8.22945892 C223.885787,7.78055888 224.440268,7.41817105 225.038113,7.14228457 C225.635957,6.86639809 226.350165,6.72845691 227.180759,6.72845691 C227.956587,6.72845691 228.643414,6.86639809 229.241258,7.14228457 C229.839103,7.41817105 230.343384,7.80160075 230.754117,8.29258517 C231.164849,8.78356959 231.475176,9.36806608 231.685106,10.0460922 C231.895037,10.7241183 232,11.4605839 232,12.255511 L232,21.5 L227.755782,21.5 L227.755782,12.255511 C227.755782,11.5447526 227.596055,10.9906499 227.276596,10.5931864 C226.957137,10.1957228 226.487083,9.99699399 225.86642,9.99699399 C225.400923,9.99699399 224.962814,10.0998654 224.552081,10.3056112 C224.141349,10.5113571 223.748876,10.7872394 223.374653,11.1332665 L223.374653,21.5 L219.130435,21.5 Z" id="worth" fill="#1355A3"></path>
            </g>
            <rect id="Rectangle" fill="#219581" x="0" y="20" width="57" height="36"></rect>
            <rect id="Rectangle-Copy" fill="#219581" x="23" y="1" width="58" height="16"></rect>
            <rect id="Rectangle-Copy-2" fill="#219581" x="60" y="6" width="21" height="29"></rect>
            <polygon id="Path-2" fill="#219581" points="11.0192522 51.6429517 11.0192522 65.9977612 25.3740617 51.6429517"></polygon>
            <polygon id="Path-2-Copy" fill="#219581" points="74.3548095 35 74.3548095 49.3548095 60 35"></polygon>
            <circle id="Oval" fill="#FFFFFF" cx="14.5" cy="37.5" r="4.5"></circle>
            <circle id="Oval-Copy" fill="#FFFFFF" cx="29.5" cy="37.5" r="4.5"></circle>
            <circle id="Oval-Copy-3" fill="#FFFFFF" cx="44.5" cy="37.5" r="4.5"></circle>
        </g>
    </g>
</svg>